<svg xmlns="http://www.w3.org/2000/svg" width="1400" height="880" viewBox="0 0 1400 880" fill="none">
  <defs>
    <linearGradient id="bgWarm" x1="0" y1="0" x2="1400" y2="880" gradientUnits="userSpaceOnUse">
      <stop stop-color="#F7F1E7"/>
      <stop offset="1" stop-color="#EDE1CF"/>
    </linearGradient>
    <radialGradient id="glowA" cx="0" cy="0" r="1" gradientUnits="userSpaceOnUse" gradientTransform="translate(220 120) rotate(25) scale(360 220)">
      <stop stop-color="#8ED4FF" stop-opacity="0.36"/>
      <stop offset="1" stop-color="#8ED4FF" stop-opacity="0"/>
    </radialGradient>
    <radialGradient id="glowB" cx="0" cy="0" r="1" gradientUnits="userSpaceOnUse" gradientTransform="translate(1180 110) rotate(-20) scale(280 200)">
      <stop stop-color="#FDBA74" stop-opacity="0.34"/>
      <stop offset="1" stop-color="#FDBA74" stop-opacity="0"/>
    </radialGradient>
    <filter id="shadowSoft" x="-20%" y="-20%" width="140%" height="140%">
      <feDropShadow dx="0" dy="12" stdDeviation="18" flood-color="#5A4936" flood-opacity="0.14"/>
    </filter>
  </defs>

  <rect width="1400" height="880" fill="url(#bgWarm)"/>
  <rect width="1400" height="880" fill="url(#glowA)"/>
  <rect width="1400" height="880" fill="url(#glowB)"/>

  <text x="58" y="62" fill="#2C241C" font-size="30" font-family="Space Grotesk, Arial" font-weight="700">HabitFlow - Warm Editorial</text>
  <text x="58" y="90" fill="#6E6255" font-size="15" font-family="Instrument Sans, Arial">Concept direction: warm surfaces, tactile cards, softer gradients, expressive hierarchy</text>

  <rect x="48" y="120" width="1304" height="720" rx="28" fill="#F4EADB" stroke="#D5C6B1" stroke-width="2"/>

  <!-- Sidebar -->
  <rect x="70" y="142" width="256" height="676" rx="22" fill="#FBF6EE" stroke="#D8CBB8"/>
  <rect x="86" y="158" width="224" height="72" rx="18" fill="#FFFDF9" stroke="#E0D4C2"/>
  <rect x="102" y="174" width="40" height="40" rx="12" fill="#2563EB"/>
  <text x="114" y="201" fill="white" font-size="16" font-family="Arial" font-weight="700">HF</text>
  <text x="154" y="190" fill="#241D17" font-size="17" font-family="Space Grotesk, Arial" font-weight="700">HabitFlow</text>
  <text x="154" y="210" fill="#7D7265" font-size="12" font-family="Instrument Sans, Arial">Build momentum every day</text>

  <!-- Nav items -->
  <g font-family="Instrument Sans, Arial" font-size="14" font-weight="600">
    <rect x="86" y="252" width="224" height="44" rx="14" fill="#FFFDF8" stroke="#DCCFBD"/>
    <rect x="86" y="262" width="4" height="24" rx="2" fill="#2563EB"/>
    <text x="110" y="280" fill="#231D17">Today</text>
    <text x="110" y="330" fill="#6A6055">Week</text>
    <text x="110" y="380" fill="#6A6055">Month</text>
    <text x="110" y="430" fill="#6A6055">Habits</text>
    <text x="110" y="480" fill="#6A6055">Stats</text>
    <text x="110" y="530" fill="#6A6055">Settings</text>
    <circle cx="98" cy="276" r="6" fill="#BFD8FF"/>
    <circle cx="98" cy="326" r="6" fill="#D2EBDD"/>
    <circle cx="98" cy="376" r="6" fill="#CDEFFD"/>
    <circle cx="98" cy="426" r="6" fill="#C6F0DB"/>
    <circle cx="98" cy="476" r="6" fill="#E7D3FA"/>
    <circle cx="98" cy="526" r="6" fill="#FFDDBE"/>
  </g>

  <rect x="86" y="730" width="224" height="48" rx="16" fill="#2563EB" filter="url(#shadowSoft)"/>
  <text x="157" y="760" fill="white" font-size="14" font-family="Instrument Sans, Arial" font-weight="700">New Habit</text>

  <!-- Main canvas -->
  <rect x="346" y="142" width="984" height="676" rx="22" fill="rgba(255,255,255,0.34)" stroke="#D8CBB8"/>

  <!-- Header -->
  <rect x="370" y="166" width="936" height="112" rx="20" fill="rgba(255,255,255,0.72)" stroke="#D8CBB8"/>
  <text x="394" y="195" fill="#8A7E70" font-size="11" font-family="Instrument Sans, Arial" letter-spacing="2">DAILY FOCUS</text>
  <text x="394" y="230" fill="#211A15" font-size="34" font-family="Space Grotesk, Arial" font-weight="700">Today</text>
  <text x="394" y="254" fill="#62584E" font-size="15" font-family="Instrument Sans, Arial">Good morning - Wednesday, February 25</text>
  <rect x="1120" y="190" width="162" height="44" rx="14" fill="#FFFDF9" stroke="#D9CCBA"/>
  <text x="1168" y="218" fill="#2B251F" font-size="14" font-family="Instrument Sans, Arial" font-weight="600">Quick Add</text>

  <!-- Hero / momentum -->
  <rect x="370" y="296" width="616" height="220" rx="22" fill="#FFFDF8" stroke="#D9CCBA" filter="url(#shadowSoft)"/>
  <text x="394" y="326" fill="#8A7E70" font-size="11" font-family="Instrument Sans, Arial" letter-spacing="2">TODAY'S MOMENTUM</text>
  <text x="394" y="365" fill="#211A15" font-size="28" font-family="Space Grotesk, Arial" font-weight="700">4 of 6 habits complete</text>
  <text x="394" y="390" fill="#655B50" font-size="14" font-family="Instrument Sans, Arial">2 left today. Small steps compound quickly.</text>
  <rect x="394" y="420" width="540" height="14" rx="7" fill="#ECE3D6"/>
  <rect x="394" y="420" width="360" height="14" rx="7" fill="#2563EB"/>
  <rect x="394" y="454" width="124" height="28" rx="14" fill="#E7F0FF" stroke="#BCD2FF"/>
  <text x="426" y="472" fill="#1E4FC8" font-size="12" font-family="Instrument Sans, Arial" font-weight="700">67% complete</text>
  <rect x="528" y="454" width="108" height="28" rx="14" fill="#F6EFE3" stroke="#DED0BC"/>
  <text x="558" y="472" fill="#675C50" font-size="12" font-family="Instrument Sans, Arial" font-weight="700">2 streaking</text>

  <!-- Progress ring -->
  <circle cx="894" cy="406" r="58" fill="#F8F1E7" stroke="#E2D6C6" stroke-width="8"/>
  <circle cx="894" cy="406" r="58" fill="none" stroke="#2563EB" stroke-width="8" stroke-linecap="round"
          stroke-dasharray="243 364" transform="rotate(-90 894 406)"/>
  <text x="874" y="413" fill="#211A15" font-size="24" font-family="Space Grotesk, Arial" font-weight="700">67</text>
  <text x="885" y="431" fill="#7A6E61" font-size="11" font-family="Instrument Sans, Arial">score</text>

  <!-- Checklist -->
  <rect x="370" y="536" width="616" height="258" rx="22" fill="rgba(255,255,255,0.8)" stroke="#D9CCBA"/>
  <text x="394" y="566" fill="#241D17" font-size="15" font-family="Space Grotesk, Arial" font-weight="700">Today's Checklist</text>
  <text x="394" y="586" fill="#7B7064" font-size="12" font-family="Instrument Sans, Arial">6 scheduled habits</text>
  <text x="893" y="572" fill="#6F6458" font-size="12" font-family="Instrument Sans, Arial">Manage</text>

  <!-- rows -->
  <g font-family="Instrument Sans, Arial">
    <rect x="386" y="602" width="584" height="40" rx="10" fill="#FFFDF9"/>
    <rect x="386" y="646" width="584" height="40" rx="10" fill="#FBF6EE"/>
    <rect x="386" y="690" width="584" height="40" rx="10" fill="#FFFDF9"/>
    <rect x="386" y="734" width="584" height="40" rx="10" fill="#FBF6EE"/>
    <rect x="394" y="610" width="3" height="24" rx="2" fill="#10B981"/>
    <rect x="394" y="654" width="3" height="24" rx="2" fill="#F59E0B"/>
    <rect x="394" y="698" width="3" height="24" rx="2" fill="#EC4899"/>
    <rect x="394" y="742" width="3" height="24" rx="2" fill="#06B6D4"/>
    <circle cx="414" cy="622" r="9" fill="#10B981"/>
    <circle cx="414" cy="666" r="9" fill="#EFE4D4" stroke="#D6C8B5"/>
    <circle cx="414" cy="710" r="9" fill="#EFE4D4" stroke="#D6C8B5"/>
    <circle cx="414" cy="754" r="9" fill="#EFE4D4" stroke="#D6C8B5"/>
    <text x="438" y="626" fill="#211A15" font-size="13" font-weight="600">Morning walk</text>
    <text x="438" y="670" fill="#211A15" font-size="13" font-weight="600">Read 20 minutes</text>
    <text x="438" y="714" fill="#211A15" font-size="13" font-weight="600">Journal</text>
    <text x="438" y="758" fill="#211A15" font-size="13" font-weight="600">Stretching</text>
    <rect x="770" y="610" width="68" height="22" rx="11" fill="#F6EFE3" stroke="#DED0BC"/>
    <text x="790" y="625" fill="#6B5F54" font-size="11">Health</text>
    <rect x="852" y="610" width="52" height="22" rx="11" fill="#FFF3D6" stroke="#F3D38E"/>
    <text x="872" y="625" fill="#B26B00" font-size="11">3</text>
  </g>

  <!-- Right column -->
  <rect x="1004" y="296" width="302" height="168" rx="20" fill="#FFFDF8" stroke="#D9CCBA"/>
  <text x="1028" y="326" fill="#6D6257" font-size="11" font-family="Instrument Sans, Arial" letter-spacing="2">HABITS SNAPSHOT</text>
  <text x="1028" y="360" fill="#231C16" font-size="15" font-family="Space Grotesk, Arial" font-weight="700">Active 12</text>
  <text x="1028" y="384" fill="#231C16" font-size="15" font-family="Space Grotesk, Arial" font-weight="700">Categories 5</text>
  <text x="1028" y="408" fill="#231C16" font-size="15" font-family="Space Grotesk, Arial" font-weight="700">Hot streaks 4</text>
  <rect x="1160" y="338" width="118" height="8" rx="4" fill="#E8E0D4"/>
  <rect x="1160" y="338" width="86" height="8" rx="4" fill="#0EA5E9"/>
  <rect x="1160" y="362" width="118" height="8" rx="4" fill="#E8E0D4"/>
  <rect x="1160" y="362" width="70" height="8" rx="4" fill="#10B981"/>
  <rect x="1160" y="386" width="118" height="8" rx="4" fill="#E8E0D4"/>
  <rect x="1160" y="386" width="44" height="8" rx="4" fill="#F59E0B"/>

  <rect x="1004" y="484" width="302" height="310" rx="20" fill="rgba(255,255,255,0.78)" stroke="#D9CCBA"/>
  <text x="1028" y="514" fill="#241D17" font-size="15" font-family="Space Grotesk, Arial" font-weight="700">Stats Preview</text>
  <text x="1028" y="534" fill="#7A6F63" font-size="12" font-family="Instrument Sans, Arial">Editorial cards with tactile charts</text>
  <rect x="1028" y="552" width="118" height="80" rx="14" fill="#FFFDF9" stroke="#E0D3C2"/>
  <rect x="1158" y="552" width="118" height="80" rx="14" fill="#FFFDF9" stroke="#E0D3C2"/>
  <text x="1040" y="577" fill="#7A6F63" font-size="10" font-family="Instrument Sans, Arial">COMPLETION RATE</text>
  <text x="1040" y="607" fill="#231C16" font-size="28" font-family="Space Grotesk, Arial" font-weight="700">78%</text>
  <text x="1170" y="577" fill="#7A6F63" font-size="10" font-family="Instrument Sans, Arial">BEST STREAK</text>
  <text x="1170" y="607" fill="#231C16" font-size="28" font-family="Space Grotesk, Arial" font-weight="700">12</text>
  <rect x="1028" y="646" width="248" height="118" rx="14" fill="#FBF6EE" stroke="#E0D3C2"/>
  <polyline points="1042,736 1080,712 1118,718 1156,688 1194,702 1232,664 1262,676" fill="none" stroke="#2563EB" stroke-width="3" stroke-linecap="round" stroke-linejoin="round"/>
  <polyline points="1042,742 1080,726 1118,730 1156,708 1194,716 1232,690 1262,696" fill="none" stroke="#93C5FD" stroke-width="2" opacity="0.8"/>
  <line x1="1042" y1="754" x2="1268" y2="754" stroke="#D8CCBA"/>
  <text x="1042" y="666" fill="#6E6257" font-size="11" font-family="Instrument Sans, Arial">Daily completions</text>
</svg>
